<svg height="512pt" viewBox="0 0 512.00006 512" width="512pt" xmlns="http://www.w3.org/2000/svg"><path d="m199.859375 464.003906c-1.386719 0-2.796875-.195312-4.195313-.601562-51.554687-15-95.453124-48.4375-123.601562-94.164063-4.34375-7.050781-2.144531-16.292969 4.910156-20.636719 7.054688-4.339843 16.292969-2.144531 20.636719 4.910157 24.238281 39.375 62.039063 68.167969 106.433594 81.085937 7.957031 2.3125 12.527343 10.636719 10.214843 18.589844-1.90625 6.554688-7.898437 10.816406-14.398437 10.816406zm0 0" fill="#a8ebfa"/><path d="m73.652344 186.425781c-2.113282 0-4.261719-.449219-6.304688-1.398437-7.511718-3.484375-10.78125-12.402344-7.292968-19.917969 29.566406-63.742187 88.503906-109.230469 157.65625-121.6875 8.144531-1.472656 15.949218 3.949219 17.417968 12.101563 1.46875 8.15625-3.949218 15.953124-12.101562 17.421874-59.546875 10.726563-110.296875 49.898438-135.757813 104.789063-2.539062 5.472656-7.957031 8.691406-13.617187 8.691406zm0 0" fill="#a8ebfa"/><path d="m314.757812 463.222656c-6.421874 0-12.367187-4.15625-14.339843-10.617187-2.421875-7.921875 2.035156-16.308594 9.957031-18.730469 43.472656-13.289062 80.488281-41.957031 104.230469-80.71875 4.328125-7.0625 13.5625-9.28125 20.628906-4.957031 7.0625 4.328125 9.28125 13.5625 4.953125 20.628906-27.574219 45.011719-70.558594 78.300781-121.042969 93.734375-1.457031.449219-2.9375.660156-4.386719.660156zm0 0" fill="#76e2f8"/><path d="m439.238281 188.371094c-5.71875 0-11.179687-3.285156-13.683593-8.835938-22.984376-50.964844-67.125-88.550781-121.105469-103.113281-7.996094-2.15625-12.730469-10.390625-10.570313-18.390625 2.15625-8 10.390625-12.730469 18.386719-10.574219 62.683594 16.914063 113.945313 60.558594 140.636719 119.742188 3.40625 7.554687.042968 16.4375-7.507813 19.84375-2 .898437-4.09375 1.328125-6.15625 1.328125zm0 0" fill="#76e2f8"/><path d="m316.628906 124.851562c-6.636718-6.648437-15.792968-10.457031-25.121094-10.457031-11.804687 0-23.730468-.007812-35.65625-.015625-11.933593-.007812-23.867187-.015625-35.679687-.015625-9.359375 0-18.167969 3.660157-24.804687 10.300781-6.625 6.632813-10.265626 15.433594-10.253907 24.777344l.046875 32.769532c.007813 5.609374 3.148438 10.75 8.140625 13.316406 19.246094 9.898437 40.925781 15.128906 62.695313 15.128906 21.773437 0 43.453125-5.230469 62.699218-15.128906 4.992188-2.566406 8.132813-7.707032 8.140626-13.320313l.046874-32.734375v-.003906c.011719-9.242188-3.628906-17.988281-10.253906-24.617188zm0 0" fill="#0095ff"/><path d="m255.984375 0c-28.546875 0-51.769531 23.226562-51.769531 51.773438 0 28.546874 23.222656 51.773437 51.769531 51.773437s51.773437-23.226563 51.773437-51.773437c0-28.546876-23.226562-51.773438-51.773437-51.773438zm0 0" fill="#ffcdbe"/><path d="m316.628906 426.191406c-6.636718-6.644531-15.792968-10.457031-25.117187-10.457031-11.804688 0-23.734375-.007813-35.660157-.015625-11.933593-.003906-23.867187-.011719-35.675781-.011719-9.363281 0-18.171875 3.65625-24.808593 10.300781-6.625 6.632813-10.265626 15.429688-10.25 24.777344l.042968 32.765625c.011719 5.613281 3.148438 10.75 8.140625 13.316407 19.25 9.902343 40.929688 15.132812 62.699219 15.132812s43.453125-5.230469 62.699219-15.132812c4.992187-2.566407 8.128906-7.703126 8.140625-13.316407l.042968-32.738281c.011719-9.242188-3.628906-17.988281-10.253906-24.621094zm0 0" fill="#ffde46"/><path d="m255.984375 301.34375c-28.546875 0-51.769531 23.222656-51.769531 51.769531s23.222656 51.773438 51.769531 51.773438 51.773437-23.226563 51.773437-51.773438-23.226562-51.769531-51.773437-51.769531zm0 0" fill="#ffcdbe"/><path d="m131.511719 289.351562c-6.632813-6.648437-15.789063-10.457031-25.117188-10.457031-11.804687 0-23.734375-.007812-35.660156-.015625-11.933594-.007812-23.867187-.015625-35.675781-.015625-9.363282 0-18.171875 3.660157-24.804688 10.304688-6.625 6.632812-10.2656248 15.429687-10.253906 24.773437l.046875 32.769532c.0078125 5.613281 3.148437 10.75 8.140625 13.316406 19.246094 9.898437 40.925781 15.128906 62.695312 15.128906 21.769532 0 43.449219-5.230469 62.699219-15.128906 4.988281-2.566406 8.132813-7.707032 8.140625-13.316406l.042969-32.738282c.011719-9.246094-3.628906-17.988281-10.253906-24.621094zm0 0" fill="#00ee84"/><path d="m70.867188 164.5c-28.546876 0-51.769532 23.226562-51.769532 51.773438 0 28.546874 23.222656 51.773437 51.769532 51.773437 28.550781 0 51.773437-23.226563 51.773437-51.773437 0-28.546876-23.222656-51.773438-51.773437-51.773438zm0 0" fill="#ffcdbe"/><path d="m501.746094 289.351562c-6.636719-6.648437-15.792969-10.457031-25.117188-10.457031-11.804687 0-23.734375-.007812-35.660156-.015625-11.933594-.007812-23.867188-.015625-35.675781-.015625-9.363281 0-18.175781 3.660157-24.808594 10.300781-6.625 6.632813-10.265625 15.433594-10.25 24.777344l.042969 32.769532c.007812 5.613281 3.148437 10.75 8.140625 13.316406 19.25 9.898437 40.929687 15.128906 62.699219 15.128906 21.769531 0 43.449218-5.230469 62.695312-15.128906 4.992188-2.566406 8.132812-7.707032 8.140625-13.316406l.046875-32.738282c.011719-9.246094-3.628906-17.988281-10.253906-24.621094zm0 0" fill="#ff2828"/><path d="m441.101562 164.5c-28.546874 0-51.773437 23.226562-51.773437 51.773438 0 28.546874 23.226563 51.773437 51.773437 51.773437 28.546876 0 51.773438-23.226563 51.773438-51.773437 0-28.546876-23.226562-51.773438-51.773438-51.773438zm0 0" fill="#ffcdbe"/><path d="m256 0v103.546875c28.542969-.011719 51.757812-23.230469 51.757812-51.773437 0-28.542969-23.214843-51.7656255-51.757812-51.773438zm0 0" fill="#ffbeaa"/><path d="m316.628906 124.851562c-6.636718-6.648437-15.792968-10.457031-25.121094-10.457031-11.753906 0-23.628906-.007812-35.507812-.015625v96.277344c21.769531 0 43.449219-5.230469 62.695312-15.128906 4.992188-2.566406 8.132813-7.707032 8.140626-13.316406l.046874-32.738282c.011719-9.246094-3.628906-17.992187-10.253906-24.621094zm0 0" fill="#0082ff"/><path d="m256 301.34375v103.542969c28.542969-.007813 51.757812-23.230469 51.757812-51.773438 0-28.539062-23.214843-51.761719-51.757812-51.769531zm0 0" fill="#ffbeaa"/><path d="m316.628906 426.191406c-6.636718-6.644531-15.792968-10.457031-25.117187-10.457031-11.757813 0-23.632813-.007813-35.511719-.015625v96.28125c21.769531 0 43.453125-5.230469 62.699219-15.132812 4.988281-2.566407 8.128906-7.703126 8.136719-13.316407l.046874-32.738281c.011719-9.242188-3.628906-17.988281-10.253906-24.621094zm0 0" fill="#ffcd00"/><path d="m71 164.503906v103.539063c28.488281-.070313 51.640625-23.265625 51.640625-51.769531 0-28.503907-23.152344-51.699219-51.640625-51.769532zm0 0" fill="#ffbeaa"/><path d="m131.511719 289.351562c-6.632813-6.648437-15.789063-10.457031-25.117188-10.457031-11.71875 0-23.554687-.007812-35.394531-.015625v96.277344c21.730469-.019531 43.367188-5.25 62.582031-15.128906 4.992188-2.566406 8.132813-7.707032 8.140625-13.320313l.042969-32.734375c.011719-9.246094-3.628906-17.988281-10.253906-24.621094zm0 0" fill="#00dd7b"/><path d="m441.101562 164.5c-.035156 0-.066406.003906-.101562.003906v103.539063c.035156 0 .066406.003906.101562.003906 28.546876 0 51.773438-23.226563 51.773438-51.773437 0-28.546876-23.226562-51.773438-51.773438-51.773438zm0 0" fill="#ffbeaa"/><path d="m501.746094 289.351562c-6.636719-6.648437-15.792969-10.457031-25.117188-10.457031-11.792968 0-23.710937-.007812-35.628906-.015625v96.277344c.039062 0 .078125.003906.117188.003906 21.769531 0 43.453124-5.234375 62.699218-15.132812 4.988282-2.566406 8.128906-7.703125 8.136719-13.316406l.046875-32.738282c.011719-9.246094-3.628906-17.988281-10.253906-24.621094zm0 0" fill="#c9001c"/></svg>