<svg height="512pt" viewBox="0 0 512 512.00202" width="512pt" xmlns="http://www.w3.org/2000/svg"><g fill="#a8ebfa"><path d="m266.480469 4.839844c-.136719-.148438-.261719-.304688-.40625-.449219-2.929688-2.933594-6.773438-4.39453125-10.617188-4.390625-3.84375-.0078125-7.691406 1.457031-10.625 4.390625-.144531.144531-.265625.296875-.402343.445313l-31.59375 31.597656c-5.855469 5.851562-5.855469 15.34375 0 21.195312 2.925781 2.929688 6.761718 4.390625 10.597656 4.390625 3.835937 0 7.671875-1.460937 10.597656-4.390625l6.453125-6.453125v72.847657c0 8.277343 6.710937 14.988281 14.988281 14.988281 8.28125 0 14.992188-6.710938 14.992188-14.988281v-72.804688l6.410156 6.410156c2.925781 2.929688 6.761719 4.390625 10.597656 4.390625 3.835938 0 7.671875-1.460937 10.597656-4.390625 5.855469-5.851562 5.855469-15.34375 0-21.199218zm0 0"/><path d="m276.875 454.371094-6.410156 6.410156v-72.804688c0-8.277343-6.710938-14.988281-14.988282-14.988281-8.28125 0-14.992187 6.710938-14.992187 14.988281v72.847657l-6.453125-6.453125c-5.851562-5.855469-15.34375-5.855469-21.195312 0-5.855469 5.851562-5.855469 15.34375 0 21.199218l31.59375 31.59375c.136718.148438.257812.304688.402343.445313 2.929688 2.929687 6.765625 4.394531 10.601563 4.394531.003906 0 .011718-.003906.019531-.003906s.015625.003906.019531.003906c3.835938 0 7.675782-1.464844 10.601563-4.390625.144531-.144531.269531-.304687.40625-.453125l31.589843-31.589844c5.855469-5.855468 5.855469-15.34375 0-21.199218-5.851562-5.855469-15.339843-5.855469-21.195312 0zm0 0"/><path d="m151.472656 338.691406-51.511718 51.507813v-9.125c0-8.28125-6.710938-14.992188-14.988282-14.992188s-14.988281 6.710938-14.988281 14.992188v44.683593c-.007813.199219-.03125.394532-.03125.597657 0 4.144531 1.683594 7.898437 4.402344 10.613281 2.714843 2.722656 6.46875 4.40625 10.617187 4.40625.207032 0 .40625-.023438.609375-.03125h44.675781c8.277344 0 14.988282-6.710938 14.988282-14.988281 0-8.277344-6.710938-14.988281-14.988282-14.988281h-9.066406l51.476563-51.480469c5.855469-5.851563 5.855469-15.34375 0-21.195313-5.851563-5.855468-15.34375-5.855468-21.195313 0zm0 0"/><path d="m121.160156 100.371094h9.128906c8.277344 0 14.988282-6.710938 14.988282-14.988282 0-8.277343-6.710938-14.988281-14.988282-14.988281h-44.667968c-.207032-.011719-.410156-.03125-.617188-.03125-4.148437 0-7.902344 1.683594-10.613281 4.40625-2.722656 2.714844-4.40625 6.464844-4.40625 10.613281 0 .207032.023437.410157.03125.617188v44.664062c0 8.28125 6.710937 14.992188 14.988281 14.992188s14.988282-6.710938 14.988282-14.992188v-9.0625l51.480468 51.476563c2.925782 2.929687 6.761719 4.390625 10.597656 4.390625 3.835938 0 7.671876-1.460938 10.597657-4.390625 5.855469-5.851563 5.855469-15.34375 0-21.195313zm0 0"/></g><path d="m348.878906 177.46875c3.835938 0 7.671875-1.460938 10.597656-4.390625l51.511719-51.507813v9.125c0 8.28125 6.710938 14.992188 14.988281 14.992188 8.277344 0 14.988282-6.710938 14.988282-14.992188v-44.664062c.011718-.207031.03125-.410156.03125-.617188 0-4.148437-1.683594-7.902343-4.40625-10.617187-2.714844-2.71875-6.464844-4.402344-10.613282-4.402344-.207031 0-.40625.019531-.609374.03125h-44.671876c-8.28125 0-14.992187 6.710938-14.992187 14.988281 0 8.277344 6.710937 14.988282 14.992187 14.988282h9.0625l-51.476562 51.480468c-5.855469 5.851563-5.855469 15.34375 0 21.195313 2.925781 2.929687 6.761719 4.390625 10.597656 4.390625zm0 0" fill="#76e2f8"/><path d="m440.9375 381.101562c0-8.277343-6.710938-14.988281-14.992188-14.988281-8.277343 0-14.988281 6.710938-14.988281 14.988281v9.066407l-51.480469-51.476563c-5.851562-5.855468-15.34375-5.855468-21.195312 0-5.855469 5.851563-5.855469 15.34375 0 21.195313l51.507812 51.511719h-9.125c-8.28125 0-14.992187 6.710937-14.992187 14.988281 0 8.277343 6.710937 14.988281 14.992187 14.988281h44.671876c.207031.007812.40625.03125.609374.03125 4.148438 0 7.902344-1.683594 10.617188-4.40625 2.71875-2.714844 4.402344-6.46875 4.402344-10.613281 0-.203125-.019532-.398438-.027344-.597657zm0 0" fill="#76e2f8"/><path d="m51.222656 270.875h72.800782c8.277343 0 14.988281-6.710938 14.988281-14.992188 0-8.277343-6.710938-14.988281-14.988281-14.988281h-72.84375l6.453124-6.453125c5.851563-5.855468 5.851563-15.34375 0-21.199218-5.855468-5.851563-15.34375-5.851563-21.199218 0l-31.589844 31.589843c-.148438.140625-.308594.265625-.453125.410157-2.933594 2.933593-4.39453125 6.777343-4.390625 10.621093-.00390625 3.84375 1.457031 7.6875 4.390625 10.621094.144531.144531.304687.269531.453125.40625l31.589844 31.589844c2.925781 2.929687 6.761718 4.390625 10.597656 4.390625s7.671875-1.460938 10.597656-4.390625c5.855469-5.851563 5.855469-15.34375 0-21.195313zm0 0" fill="#a8ebfa"/><path d="m506.863281 245.285156c-.148437-.144531-.304687-.273437-.457031-.414062l-31.585938-31.582032c-5.851562-5.855468-15.34375-5.855468-21.199218 0-5.851563 5.851563-5.851563 15.34375 0 21.195313l6.410156 6.410156h-72.800781c-8.277344 0-14.988281 6.710938-14.988281 14.988281 0 8.28125 6.710937 14.992188 14.988281 14.992188h72.847656l-6.457031 6.453125c-5.851563 5.851563-5.851563 15.34375 0 21.199219 2.929687 2.925781 6.765625 4.390625 10.601562 4.390625 3.835938 0 7.671875-1.464844 10.597656-4.390625l31.585938-31.585938c.152344-.140625.308594-.265625.457031-.414062 2.933594-2.933594 4.394531-6.777344 4.390625-10.621094.003906-3.84375-1.457031-7.6875-4.390625-10.621094zm0 0" fill="#76e2f8"/><path d="m315.765625 312.90625c-6.691406-6.554688-15.503906-10.160156-24.804687-10.160156-11.796876 0-23.714844-.007813-35.632813-.015625-11.925781-.007813-23.851563-.015625-35.652344-.015625-9.34375 0-18.136719 3.648437-24.761719 10.273437-6.628906 6.625-10.277343 15.421875-10.273437 24.769531l.027344 37.628907c.003906 5.8125 3.367187 11.101562 8.636719 13.566406 19.546874 9.144531 40.464843 13.785156 62.171874 13.785156 21.707032 0 42.625-4.640625 62.175782-13.785156 5.265625-2.464844 8.632812-7.753906 8.636718-13.570313l.019532-37.59375c.007812-9.390624-3.738282-18.226562-10.542969-24.882812zm0 0" fill="#00ee84"/><path d="m315.765625 312.90625c-6.691406-6.554688-15.503906-10.160156-24.804687-10.160156-11.796876 0-23.714844-.007813-35.632813-.015625-.011719 0-.023437 0-.03125 0v100.003906c.058594 0 .117187.003906.179687.003906 21.707032 0 42.625-4.640625 62.175782-13.785156 5.265625-2.464844 8.632812-7.753906 8.636718-13.570313l.019532-37.59375c.007812-9.390624-3.738282-18.226562-10.542969-24.882812zm0 0" fill="#00dd7b"/><path d="m255.460938 188.433594c-28.527344 0-51.734376 23.207031-51.734376 51.734375 0 28.527343 23.207032 51.738281 51.734376 51.738281 28.527343 0 51.738281-23.210938 51.738281-51.738281 0-28.527344-23.210938-51.734375-51.738281-51.734375zm0 0" fill="#ffcdbe"/><path d="m255.476562 402.738281c-80.976562 0-146.855468-65.878906-146.855468-146.855469 0-80.972656 65.878906-146.851562 146.855468-146.851562 80.972657 0 146.851563 65.878906 146.851563 146.851562 0 80.976563-65.875 146.855469-146.851563 146.855469zm0-263.726562c-64.445312 0-116.875 52.429687-116.875 116.871093 0 64.445313 52.429688 116.875 116.875 116.875 64.445313 0 116.875-52.429687 116.875-116.875 0-64.441406-52.429687-116.871093-116.875-116.871093zm0 0" fill="#a8ebfa"/><path d="m255.460938 188.433594c-.054688 0-.109376.003906-.164063.003906v103.464844c.054687 0 .109375.003906.164063.003906 28.527343 0 51.738281-23.210938 51.738281-51.738281 0-28.527344-23.210938-51.734375-51.738281-51.734375zm0 0" fill="#ffbeaa"/><path d="m255.476562 109.03125c-.0625 0-.121093 0-.183593 0v29.980469h.183593c64.445313 0 116.875 52.429687 116.875 116.871093 0 64.445313-52.429687 116.875-116.875 116.875-.0625 0-.121093 0-.183593 0v29.976563c.0625 0 .121093.003906.183593.003906 80.972657 0 146.851563-65.878906 146.851563-146.855469 0-80.972656-65.875-146.851562-146.851563-146.851562zm0 0" fill="#76e2f8"/><path d="m298.074219 454.371094c-5.855469-5.855469-15.34375-5.855469-21.199219 0l-6.410156 6.410156v-72.804688c0-8.277343-6.710938-14.988281-14.988282-14.988281-.0625 0-.121093.007813-.183593.007813v138.996094c.046875 0 .09375.007812.140625.007812h.019531.019531c3.835938 0 7.675782-1.464844 10.601563-4.390625.144531-.144531.269531-.300781.40625-.449219l31.589843-31.589844c5.859376-5.855468 5.859376-15.347656.003907-21.199218zm0 0" fill="#76e2f8"/><path d="m298.074219 36.429688-31.59375-31.589844c-.136719-.148438-.261719-.304688-.40625-.449219-2.929688-2.933594-6.773438-4.39453125-10.617188-4.390625-.054687 0-.109375.0078125-.164062.0078125v138.9960935c.0625 0 .121093.007813.183593.007813 8.277344 0 14.988282-6.710938 14.988282-14.988281v-72.804688l6.410156 6.410156c2.925781 2.929688 6.761719 4.390625 10.597656 4.390625 3.835938 0 7.671875-1.460937 10.597656-4.390625 5.859376-5.851562 5.859376-15.34375.003907-21.199218zm0 0" fill="#76e2f8"/></svg>