<svg height="512pt" viewBox="-8 0 512 512" width="512pt" xmlns="http://www.w3.org/2000/svg"><path d="m247.5 86.125c-88.773438 0-161 72.222656-161 161 0 59.042969 32.25 113.269531 84.167969 141.507812 5.050781 2.75 7.832031 7.429688 7.832031 13.175782v41.191406c0 38.046875 30.953125 69 69 69s69-30.953125 69-69v-41.191406c0-5.75 2.78125-10.425782 7.832031-13.175782 51.917969-28.242187 84.167969-82.464843 84.167969-141.507812 0-88.777344-72.226562-161-161-161zm0 0" fill="#ffde46"/><path d="m247.5 0c-8.285156 0-15 6.714844-15 15v27c0 8.285156 6.714844 15 15 15s15-6.714844 15-15v-27c0-8.285156-6.714844-15-15-15zm0 0" fill="#ffde46"/><path d="m480 232.5h-27c-8.285156 0-15 6.714844-15 15s6.714844 15 15 15h27c8.285156 0 15-6.714844 15-15s-6.714844-15-15-15zm0 0" fill="#ffcd00"/><g fill="#ffde46"><path d="m57 247.5c0-8.285156-6.714844-15-15-15h-27c-8.285156 0-15 6.714844-15 15s6.714844 15 15 15h27c8.285156 0 15-6.714844 15-15zm0 0"/><path d="m77.03125 131.761719-23.382812-13.5c-7.175782-4.144531-16.347657-1.6875-20.488282 5.488281-4.144531 7.175781-1.6875 16.347656 5.488282 20.488281l23.382812 13.5c2.363281 1.367188 4.941406 2.015625 7.488281 2.015625 5.183594 0 10.222657-2.691406 13.003907-7.503906 4.140624-7.175781 1.683593-16.347656-5.492188-20.488281zm0 0"/><path d="m144.238281 38.648438c-4.140625-7.175782-13.3125-9.632813-20.488281-5.488282-7.175781 4.140625-9.632812 13.316406-5.488281 20.488282l13.5 23.382812c2.777343 4.8125 7.816406 7.503906 13.003906 7.503906 2.542969 0 5.121094-.648437 7.484375-2.011718 7.175781-4.144532 9.632812-13.316407 5.488281-20.492188zm0 0"/></g><path d="m371.25 33.160156c-7.175781-4.144531-16.347656-1.6875-20.488281 5.488282l-13.5 23.382812c-4.144531 7.175781-1.6875 16.347656 5.488281 20.492188 2.363281 1.363281 4.941406 2.011718 7.484375 2.011718 5.1875 0 10.226563-2.691406 13.003906-7.503906l13.5-23.382812c4.144531-7.171876 1.6875-16.347657-5.488281-20.488282zm0 0" fill="#ffcd00"/><path d="m425.480469 159.753906c2.546875 0 5.125-.648437 7.488281-2.011718l23.382812-13.5c7.171876-4.144532 9.632813-13.316407 5.488282-20.492188-4.144532-7.175781-13.320313-9.628906-20.488282-5.488281l-23.382812 13.5c-7.175781 4.140625-9.632812 13.316406-5.492188 20.488281 2.78125 4.8125 7.820313 7.503906 13.003907 7.503906zm0 0" fill="#ffcd00"/><path d="m456.351562 350.761719-23.382812-13.5c-7.175781-4.144531-16.351562-1.6875-20.492188 5.488281-4.140624 7.175781-1.683593 16.347656 5.492188 20.488281l23.382812 13.5c2.363282 1.367188 4.941407 2.015625 7.484376 2.015625 5.183593 0 10.226562-2.691406 13.003906-7.503906 4.144531-7.175781 1.683594-16.347656-5.488282-20.488281zm0 0" fill="#ffcd00"/><path d="m62.03125 337.257812-23.382812 13.5c-7.175782 4.144532-9.632813 13.316407-5.488282 20.492188 2.777344 4.8125 7.820313 7.5 13.003906 7.5 2.542969 0 5.125-.648438 7.484376-2.011719l23.382812-13.5c7.175781-4.140625 9.632812-13.316406 5.492188-20.488281-4.140626-7.175781-13.320313-9.632812-20.492188-5.492188zm0 0" fill="#ffde46"/><path d="m291.941406 237.230469c-5.855468-5.859375-15.355468-5.859375-21.210937 0l-23.230469 23.230469-23.230469-23.230469c-5.855469-5.859375-15.351562-5.859375-21.210937 0-5.859375 5.855469-5.859375 15.355469 0 21.210937l29.441406 29.445313v106.429687c0 8.28125 6.714844 15 15 15s15-6.71875 15-15v-106.429687l29.441406-29.441407c5.859375-5.859374 5.859375-15.355468 0-21.214843zm0 0" fill="#a8ebfa"/><path d="m316.5 443v-41.191406c0-4.886719 2.015625-8.996094 5.722656-11.808594h-149.445312c3.707031 2.8125 5.722656 6.921875 5.722656 11.808594v41.191406c0 38.046875 30.953125 69 69 69s69-30.953125 69-69zm0 0" fill="#0095ff" fill-rule="evenodd"/><path d="m247.5 86.125v425.875c38.046875 0 69-30.953125 69-69v-41.191406c0-5.75 2.78125-10.425782 7.832031-13.175782 51.917969-28.242187 84.167969-82.464843 84.167969-141.507812 0-88.777344-72.226562-161-161-161zm0 0" fill="#ffcd00"/><path d="m291.941406 237.230469c-5.855468-5.859375-15.355468-5.859375-21.210937 0l-23.230469 23.230469v148.855468c8.285156 0 15-6.71875 15-15v-106.429687l29.441406-29.441407c5.859375-5.859374 5.859375-15.355468 0-21.214843zm0 0" fill="#76e2f8"/><path d="m247.5 390v122c38.046875 0 69-30.953125 69-69v-41.191406c0-4.886719 2.015625-8.996094 5.722656-11.808594zm0 0" fill="#0082ff" fill-rule="evenodd"/><path d="m247.5 0v57c8.285156 0 15-6.714844 15-15v-27c0-8.285156-6.714844-15-15-15zm0 0" fill="#ffcd00"/></svg>