<svg height="512pt" viewBox="0 0 512 512" width="512pt" xmlns="http://www.w3.org/2000/svg"><path d="m203.128906 238.277344c-6.367187-8.789063-16.257812-13.832032-27.140625-13.832032h-16.699219c.109376-1.089843.164063-2.199218.164063-3.316406v-2.511718c0-18.375-15.007813-33.320313-33.460937-33.320313l-21.664063.003906c-9.996094.003907-19.015625 3.746094-26.085937 10.820313l-13.445313 13.464844c-7.0625 7.070312-10.796875 16.09375-10.796875 26.089843v41c0 10 3.734375 19.023438 10.800781 26.09375l13.445313 13.460938c7.066406 7.074219 16.089844 10.816406 26.089844 10.816406h59.464843c14.589844 0 27.03125-8.898437 31.699219-22.664063l12.1875-35.957031c3.5-10.324219 1.835938-21.3125-4.558594-30.148437zm0 0" fill="#ffcdbe"/><path d="m54 256v20.675781c0 10 3.734375 19.023438 10.800781 26.09375l13.445313 13.460938c7.066406 7.074219 16.089844 10.816406 26.089844 10.816406h59.464843c14.589844 0 27.03125-8.898437 31.699219-22.664063l12.1875-35.957031c1.390625-4.097656 1.953125-8.296875 1.742188-12.425781zm0 0" fill="#ffbeaa"/><path d="m69 174h-54c-8.285156 0-15 6.714844-15 15v134c0 8.285156 6.714844 15 15 15h54c8.285156 0 15-6.714844 15-15v-134c0-8.285156-6.714844-15-15-15zm0 0" fill="#00ee84"/><path d="m447.203125 209.585938-13.445313-13.464844c-7.070312-7.074219-16.089843-10.816406-26.085937-10.820313l-21.667969-.003906c-18.449218 0-33.457031 14.945313-33.457031 33.320313v2.511718c0 1.117188.054687 2.226563.164063 3.316406h-16.699219c-10.882813 0-20.773438 5.042969-27.140625 13.832032-6.394532 8.835937-8.058594 19.824218-4.558594 30.148437l12.1875 35.957031c4.667969 13.765626 17.109375 22.664063 31.699219 22.664063h59.464843c10 0 19.023438-3.742187 26.09375-10.816406l13.441407-13.460938c7.066406-7.070312 10.800781-16.09375 10.800781-26.09375v-41c0-9.996093-3.734375-19.019531-10.796875-26.089843zm0 0" fill="#ffcdbe"/><path d="m302.570312 256c-.210937 4.128906.351563 8.328125 1.738282 12.425781l12.191406 35.957031c4.667969 13.765626 17.109375 22.664063 31.699219 22.664063h59.464843c10 0 19.019532-3.742187 26.089844-10.816406l13.445313-13.460938c7.066406-7.070312 10.800781-16.09375 10.800781-26.09375v-20.675781zm0 0" fill="#ffbeaa"/><path d="m497 174h-54c-8.285156 0-15 6.714844-15 15v134c0 8.285156 6.714844 15 15 15h54c8.285156 0 15-6.714844 15-15v-134c0-8.285156-6.714844-15-15-15zm0 0" fill="#ff2828"/><path d="m326.699219 104.328125c-.003907-9.996094-3.746094-19.019531-10.820313-26.085937l-13.464844-13.445313c-7.070312-7.0625-16.09375-10.796875-26.089843-10.796875h-41c-10 0-19.023438 3.734375-26.09375 10.800781l-13.457031 13.441407c-7.078126 7.070312-10.816407 16.09375-10.816407 26.09375v59.464843c0 14.589844 8.894531 27.03125 22.660157 31.699219l35.960937 12.1875c3.550781 1.203125 7.175781 1.796875 10.769531 1.796875 6.851563 0 13.578125-2.160156 19.375-6.355469 8.789063-6.367187 13.832032-16.257812 13.832032-27.140625v-16.699219c1.089843.109376 2.199218.164063 3.316406.164063h2.515625c18.371093 0 33.316406-15.007813 33.316406-33.460937zm0 0" fill="#ffcdbe"/><path d="m326.699219 104.328125c-.003907-9.996094-3.746094-19.019531-10.820313-26.085937l-13.464844-13.445313c-7.070312-7.0625-16.09375-10.796875-26.089843-10.796875h-20.324219v155.421875c6.277344-.320313 12.390625-2.4375 17.722656-6.292969 8.789063-6.367187 13.832032-16.257812 13.832032-27.140625v-16.699219c1.089843.109376 2.199218.164063 3.316406.164063h2.511718c18.375 0 33.320313-15.007813 33.320313-33.460937zm0 0" fill="#ffbeaa"/><path d="m323 0h-134c-8.285156 0-15 6.714844-15 15v54c0 8.285156 6.714844 15 15 15h134c8.285156 0 15-6.714844 15-15v-54c0-8.285156-6.714844-15-15-15zm0 0" fill="#0095ff"/><path d="m293.382812 352.546875h-2.511718c-1.117188 0-2.226563.054687-3.316406.164063v-16.699219c0-10.882813-5.042969-20.773438-13.832032-27.136719-8.835937-6.402344-19.824218-8.0625-30.148437-4.5625l-35.957031 12.1875c-13.765626 4.667969-22.664063 17.109375-22.664063 31.699219v59.464843c0 10 3.742187 19.023438 10.816406 26.089844l13.460938 13.449219c7.074219 7.0625 16.09375 10.796875 26.09375 10.796875h41c9.996093 0 19.019531-3.734375 26.089843-10.796875l13.464844-13.449219c7.074219-7.066406 10.816406-16.085937 10.820313-26.082031l.003906-21.667969c0-18.449218-14.945313-33.457031-33.320313-33.457031zm0 0" fill="#ffcdbe"/><path d="m293.382812 352.546875h-2.511718c-1.117188 0-2.226563.054687-3.316406.164063v-16.699219c0-10.882813-5.042969-20.773438-13.832032-27.136719-5.328125-3.863281-11.445312-5.984375-17.722656-6.304688v155.429688h20.324219c9.996093 0 19.019531-3.734375 26.089843-10.796875l13.464844-13.449219c7.074219-7.066406 10.816406-16.085937 10.820313-26.082031l.003906-21.667969c0-18.449218-14.945313-33.457031-33.320313-33.457031zm0 0" fill="#ffbeaa"/><path d="m323 428h-134c-8.285156 0-15 6.714844-15 15v54c0 8.285156 6.714844 15 15 15h134c8.285156 0 15-6.714844 15-15v-54c0-8.285156-6.714844-15-15-15zm0 0" fill="#0095ff"/><path d="m323 0h-67v84h67c8.285156 0 15-6.714844 15-15v-54c0-8.285156-6.714844-15-15-15zm0 0" fill="#0082ff"/><path d="m323 428h-67v84h67c8.285156 0 15-6.714844 15-15v-54c0-8.285156-6.714844-15-15-15zm0 0" fill="#0082ff"/><path d="m0 256v67c0 8.285156 6.714844 15 15 15h54c8.285156 0 15-6.714844 15-15v-67zm0 0" fill="#00dd7b"/><path d="m428 256v67c0 8.285156 6.714844 15 15 15h54c8.285156 0 15-6.714844 15-15v-67zm0 0" fill="#c9001c"/></svg>