<svg height="512pt" viewBox="0 0 512 512" width="512pt" xmlns="http://www.w3.org/2000/svg"><path d="m120 0h-70c-8.285156 0-15 6.714844-15 15v47c0 8.285156 6.714844 15 15 15h70c8.285156 0 15-6.714844 15-15v-47c0-8.285156-6.714844-15-15-15zm0 0" fill="#0095ff"/><path d="m462 0h-70c-8.285156 0-15 6.714844-15 15v47c0 8.285156 6.714844 15 15 15h70c8.285156 0 15-6.714844 15-15v-47c0-8.285156-6.714844-15-15-15zm0 0" fill="#0082ff"/><path d="m291 0h-70c-8.285156 0-15 6.714844-15 15v47c0 8.285156 6.714844 15 15 15h70c8.285156 0 15-6.714844 15-15v-47c0-8.285156-6.714844-15-15-15zm0 0" fill="#0095ff"/><path d="m291 0h-35v77h35c8.285156 0 15-6.714844 15-15v-47c0-8.285156-6.714844-15-15-15zm0 0" fill="#0082ff"/><path d="m497 47h-482c-8.285156 0-15 6.714844-15 15v382c0 8.285156 6.714844 15 15 15h482c8.285156 0 15-6.714844 15-15v-382c0-8.285156-6.714844-15-15-15zm0 0" fill="#a8ebfa"/><path d="m497 47h-241v412h241c8.285156 0 15-6.714844 15-15v-382c0-8.285156-6.714844-15-15-15zm0 0" fill="#76e2f8"/><path d="m437 107h-271.5c-8.285156 0-15 6.714844-15 15v75h-75.5c-8.285156 0-15 6.714844-15 15v180c0 8.285156 6.714844 15 15 15h271c8.285156 0 15-6.714844 15-15v-75h76c8.285156 0 15-6.714844 15-15v-180c0-8.285156-6.714844-15-15-15zm-15 90h-60.5v-60h60.5zm-241.5 30h60.5v60h-60.5zm90.5 0h60.5v60h-60.5zm60.5-30h-60.5v-60h60.5zm-151-60h60.5v60h-60.5zm-90.5 90h60.5v60h-60.5zm0 90h60.5v60h-60.5zm90.5 0h60v60h-60zm150.5 60h-60v-60h60zm91-90h-60.5v-60h60.5zm0 0" fill="#27d8f6"/><path d="m269.667969 225.332031h65.507812v65.511719h-65.507812zm0 0" fill="#c9001c"/><path d="m437 107h-181v300h90c8.285156 0 15-6.714844 15-15v-75h76c8.285156 0 15-6.714844 15-15v-180c0-8.285156-6.714844-15-15-15zm-106 270h-60v-60h60zm.5-90h-60.5v-60h60.5zm0-90h-60.5v-60h60.5zm90.5 90h-60.5v-60h60.5zm0-90h-60.5v-60h60.5zm0 0" fill="#00cef5"/><path d="m512 429h-512v68c0 8.285156 6.714844 15 15 15h482c8.285156 0 15-6.714844 15-15zm0 0" fill="#0095ff"/><path d="m256 429v83h241c8.285156 0 15-6.714844 15-15v-68zm0 0" fill="#0082ff"/></svg>