<svg height="512pt" viewBox="0 0 511 512" width="512pt" xmlns="http://www.w3.org/2000/svg"><path d="m294.5 0h-85c-8.285156 0-15 6.714844-15 15v65c0 8.285156 6.714844 15 15 15h85c8.285156 0 15-6.714844 15-15v-65c0-8.285156-6.714844-15-15-15zm0 0" fill="#c9001c"/><path d="m510.792969 490.050781-150-287c-2.585938-4.949219-7.707031-8.050781-13.292969-8.050781s-10.707031 3.101562-13.292969 8.050781l-150 287c-2.429687 4.652344-2.253906 10.234375.460938 14.71875 2.71875 4.488281 7.585937 7.230469 12.832031 7.230469h300c5.246094 0 10.113281-2.742188 12.828125-7.230469 2.71875-4.484375 2.894531-10.066406.464844-14.71875zm0 0" fill="#fdbf00"/><path d="m360.792969 203.050781c-2.585938-4.949219-7.707031-8.050781-13.292969-8.050781s-10.707031 3.101562-13.292969 8.050781l-42.734375 81.765625 8.765625 7.789063c.269531.242187.550781.472656.835938.695312l37.296875 28.601563c2.691406 2.066406 5.910156 3.097656 9.128906 3.097656 3.15625 0 6.3125-.992188 8.972656-2.980469l35.84375-26.753906c.050782-.042969.105469-.082031.15625-.121094l11.742188-9.011719zm0 0" fill="#76e2f8"/><path d="m209.5 151.75c-8.285156 0-15-6.714844-15-15v-121.75c0-8.285156 6.714844-15 15-15s15 6.714844 15 15v121.75c0 8.285156-6.714844 15-15 15zm0 0" fill="#27d8f6"/><path d="m410.804688 478.769531-188.054688-354.292969c-2.601562-4.902343-7.699219-7.96875-13.25-7.96875s-10.648438 3.066407-13.25 7.96875l-194 365.492188c-2.46875 4.648438-2.3164062 10.25.394531 14.761719 2.714844 4.511719 7.589844 7.269531 12.855469 7.269531h414.167969zm0 0" fill="#ffde46"/><path d="m209.5 0v151.75c8.285156 0 15-6.714844 15-15v-121.75c0-8.285156-6.714844-15-15-15zm0 0" fill="#00cef5"/><path d="m410.804688 478.769531-188.054688-354.292969c-2.601562-4.902343-7.699219-7.96875-13.25-7.96875v395.492188h220.164062zm0 0" fill="#ffcd00"/><path d="m222.75 124.476562c-2.601562-4.902343-7.699219-7.96875-13.25-7.96875s-10.648438 3.066407-13.25 7.96875l-56.425781 106.304688 59.996093 50.679688c2.796876 2.359374 6.238282 3.539062 9.679688 3.539062 3.546875 0 7.097656-1.253906 9.929688-3.757812l58.914062-52.027344zm0 0" fill="#a8ebfa"/><path d="m222.75 124.476562c-2.601562-4.902343-7.699219-7.96875-13.25-7.96875v168.492188c3.546875 0 7.097656-1.253906 9.929688-3.757812l58.914062-52.027344zm0 0" fill="#76e2f8"/></svg>