<svg height="512pt" viewBox="0 -7 512.00008 512" width="512pt" xmlns="http://www.w3.org/2000/svg"><path d="m137.402344 131.546875c-6.851563-6.859375-16.300782-10.792969-25.925782-10.792969-12.460937 0-25.050781-.007812-37.644531-.015625-12.597656-.007812-25.191406-.015625-37.660156-.015625-9.660156 0-18.75 3.773438-25.59375 10.628906-6.835937 6.847657-10.59375 15.925782-10.578125 25.566407l.046875 34.585937c.0078125 5.613282 3.148437 10.753906 8.140625 13.320313 20.199219 10.386719 42.953125 15.878906 65.800781 15.878906 22.851563 0 45.605469-5.492187 65.804688-15.878906 4.992187-2.566407 8.132812-7.707031 8.140625-13.320313l.046875-34.554687c.011719-9.535157-3.746094-18.558594-10.578125-25.402344zm0 0" fill="#0095ff"/><path d="m73.976562 0c-29.675781 0-53.820312 24.144531-53.820312 53.816406 0 29.675782 24.144531 53.816406 53.820312 53.816406 29.671876 0 53.816407-24.140624 53.816407-53.816406 0-29.671875-24.144531-53.816406-53.816407-53.816406zm0 0" fill="#ffcdbe"/><path d="m494.609375 22.925781c-2.8125-2.816406-6.628906-4.398437-10.609375-4.398437h-255c-8.277344 0-14.992188 6.707031-15 14.984375l-.082031 90.042969c-.007813 8.257812-6.734375 14.972656-15 14.972656h-5.957031c-8.285157 0-15 6.71875-15 15v9.964844c0 12 4.683593 23.292968 13.195312 31.804687s19.808594 13.199219 31.804688 13.195313h260.917968c8.277344 0 14.992188-6.707032 15-14.988282l.121094-159.964844c.003906-3.980468-1.574219-7.800781-4.390625-10.613281zm0 0" fill="#00ee84"/><path d="m501.421875 409.355469c-6.84375-6.855469-15.933594-10.628907-25.59375-10.628907-12.46875 0-25.0625.007813-37.660156.015626-12.59375.003906-25.183594.011718-37.644531.011718-9.625 0-19.074219 3.9375-25.925782 10.796875-6.832031 6.84375-10.589844 15.863281-10.578125 25.398438l.046875 34.558593c.007813 5.613282 3.148438 10.75 8.140625 13.316407 20.199219 10.390625 42.953125 15.878906 65.804688 15.878906 22.847656 0 45.601562-5.488281 65.800781-15.878906 4.992188-2.566407 8.132812-7.703125 8.140625-13.316407l.046875-34.589843c.015625-9.640625-3.742188-18.71875-10.578125-25.5625zm0 0" fill="#ff2828"/><path d="m438.027344 278c-29.675782 0-53.820313 24.144531-53.820313 53.816406 0 29.675782 24.144531 53.820313 53.820313 53.820313 29.671875 0 53.816406-24.144531 53.816406-53.820313 0-29.671875-24.144531-53.816406-53.816406-53.816406zm0 0" fill="#ffcdbe"/><path d="m319.039062 416.527344h-5.957031c-8.261719 0-14.992187-6.714844-15-14.972656l-.082031-90.042969c-.007812-8.277344-6.71875-14.984375-15-14.984375h-255c-3.980469 0-7.796875 1.582031-10.609375 4.398437-2.816406 2.8125-4.394531 6.632813-4.390625 10.613281l.125 159.964844c.003906 8.28125 6.71875 14.988282 15 14.988282h260.914062.003907c11.996093 0 23.292969-4.6875 31.800781-13.195313 8.511719-8.511719 13.199219-19.804687 13.199219-31.804687v-9.964844c-.003907-8.285156-6.71875-15-15.003907-15zm0 0" fill="#76e2f8"/><path d="m174 296.527344h-146c-3.980469 0-7.796875 1.582031-10.609375 4.394531-2.816406 2.816406-4.394531 6.636719-4.390625 10.617187l.125 159.964844c.003906 8.277344 6.71875 14.988282 15 14.988282h145.875zm0 0" fill="#a8ebfa"/><path d="m217.5625 375.527344h-.507812c-8.285157 0-15 6.714844-15 15s6.714843 15 15 15h.507812c8.28125 0 15-6.714844 15-15s-6.71875-15-15-15zm0 0" fill="#00cef5"/><path d="m95.566406 375.527344h-.503906c-8.285156 0-15 6.714844-15 15s6.714844 15 15 15h.503906c8.285156 0 15-6.714844 15-15s-6.714844-15-15-15zm0 0" fill="#27d8f6"/><path d="m156.566406 375.527344h-.503906c-8.285156 0-15 6.714844-15 15s6.714844 15 15 15h.503906c8.285156 0 15-6.714844 15-15s-6.714844-15-15-15zm0 0" fill="#27d8f6"/><path d="m74.5.0117188v107.6093752c29.433594-.285156 53.292969-24.304688 53.292969-53.804688s-23.859375-53.519531-53.292969-53.8046872zm0 0" fill="#ffbeaa"/><path d="m137.402344 131.546875c-6.851563-6.859375-16.300782-10.792969-25.925782-10.792969-12.242187 0-24.605468-.007812-36.976562-.011718v99.953124c22.675781-.078124 45.246094-5.558593 65.292969-15.871093 4.992187-2.566407 8.132812-7.703125 8.140625-13.316407l.046875-34.558593c.011719-9.535157-3.746094-18.558594-10.578125-25.402344zm0 0" fill="#0082ff"/><path d="m438.027344 278c-.011719 0-.023438 0-.03125 0v107.636719h.03125c29.671875 0 53.816406-24.144531 53.816406-53.816407 0-29.675781-24.144531-53.820312-53.816406-53.820312zm0 0" fill="#ffbeaa"/><path d="m501.421875 409.355469c-6.84375-6.855469-15.933594-10.628907-25.59375-10.628907-12.46875 0-25.0625.007813-37.660156.015626-.058594 0-.117188 0-.175781 0v99.960937h.019531c22.847656 0 45.601562-5.488281 65.800781-15.878906 4.992188-2.566407 8.132812-7.703125 8.140625-13.316407l.046875-34.589843c.015625-9.640625-3.742188-18.71875-10.578125-25.5625zm0 0" fill="#c9001c"/><path d="m494.609375 22.925781c-2.8125-2.816406-6.628906-4.398437-10.609375-4.398437h-145.582031v189.964844h145.460937c8.277344 0 14.992188-6.707032 15-14.988282l.121094-159.964844c.003906-3.980468-1.574219-7.800781-4.390625-10.613281zm0 0" fill="#00dd7b"/></svg>